<?xml version="1.0" encoding="UTF-8"?>
<svg id="Layer_1" data-name="Layer 1" xmlns="http://www.w3.org/2000/svg" viewBox="0 0 1300 900">
  <defs>
    <style>
      .cls-1 {
        fill: #092033;
      }
    </style>
  </defs>
  <g>
    <path class="cls-1" d="M597.19,444.06c.54,1.7.13,2.57-1.5,3.14-3.42,1.2-5.48,3.92-6.75,7.14-3.05,7.71-6,15.46-8.9,23.23-4.21,11.31-8.34,22.65-12.49,33.99-.51,1.38-.98,2.63-2.87,2.26-2.02-.4-4.39,1.05-5.64-2.29-4.56-12.14-9.46-24.16-14.45-36.75-1.5,3.54-2.84,6.64-4.13,9.76-3.76,9.11-7.62,18.19-11.18,27.38-1.05,2.7-2.95,1.62-4.63,1.9-1.63.27-2.23-.59-2.77-2.01-6.81-17.97-13.67-35.92-20.55-53.86-.79-2.06-1.51-4.27-2.81-5.99-1.33-1.75-3.21-3.24-5.13-4.35-1.18-.68-1.7-1.38-1.34-2.43.2-.58,1.2-1.25,1.85-1.26,8.15-.12,16.31-.17,24.47-.1.92,0,2.31.64,2.63,1.37.71,1.59-.91,1.66-1.93,2.08-2.93,1.22-4.17,3.85-3.02,7.12,2.43,6.89,5.05,13.71,7.6,20.55,2.18,5.85,4.39,11.68,6.77,17.98,1.07-2.46,2.05-4.57,2.91-6.73,2.4-6.03,4.77-12.06,7.09-18.12.3-.78.51-1.84.23-2.56-1.92-4.97-3.88-9.94-6.05-14.81-1.32-2.96-2.17-3.41-5.04-4.01-.04-.75-.09-1.54-.16-2.65h26.29c.13.67.26,1.3.41,2.1-.8.32-1.57.56-2.27.92-1.7.87-3.08,1.8-2.16,4.2,5.32,13.77,10.55,27.58,16.04,41.99,1.32-3.42,2.53-6.29,3.53-9.23,3.08-9.01,6.19-18.01,9.08-27.08,1.6-5.02.04-7.99-4.83-9.93-1.48-.59-1.96-1.35-1.23-2.94h22.92Z"/>
    <path class="cls-1" d="M638.18,442.81c14.35-.01,25.7,4.7,33.38,16.21,11.76,17.61,6.14,48.5-23.51,54.71-12.51,2.62-24.52.86-34.83-7.37-9.86-7.87-13.66-18.47-12.7-30.85,1.4-18,15.54-30.03,31.54-32.33,2.28-.33,4.61-.29,6.12-.37ZM617.19,478.61c.49,4,.77,8.03,1.51,11.98,1,5.32,2.8,10.38,7.09,14.04,9.65,8.23,24.63,5.04,30.46-6.44,2.35-4.62,3.32-9.61,3.75-14.72.71-8.41-.09-16.64-3.76-24.35-3.44-7.23-9.26-10.75-17.35-10.78-7.96-.03-13.75,3.28-17.36,10.38-3.18,6.24-4.08,12.96-4.34,19.89Z"/>
    <path class="cls-1" d="M807.29,443.68c.28,5.76.59,11.41.78,17.07.02.51-.72,1.5-1.07,1.49-1.2-.06-2.46-.29-3.54-.81-.52-.25-.65-1.27-.98-1.94-2.94-5.88-7.57-9.49-14.2-10.08-4.32-.38-8.67-.42-13.13-.62v26.88c4.81,0,9.5.15,14.17-.05,4.04-.17,6.21-2.63,6.55-6.69h3.53v19.98h-3.24c-1.5-5.87-3.3-7.26-9.49-7.27-3.63,0-7.26.02-10.89.04-.15,0-.3.09-.53.17,0,7.28-.17,14.59.06,21.89.14,4.48,3.12,6.47,7.4,6.54.75,2.22.02,2.95-2.14,2.93-8.57-.06-17.13.04-25.7-.03-.84,0-2.12-.62-2.42-1.29-.57-1.26.54-1.71,1.69-2.08,3.78-1.23,5.53-3.84,5.57-8.61.1-11.14.09-22.27.1-33.41,0-4.37.02-8.74-.07-13.11-.09-4.27-1.6-6.19-5.6-7.74-.68-.26-1.14-1.1-1.7-1.67.66-.41,1.33-1.17,2-1.18,17.07-.22,34.15-.36,51.22-.5.48,0,.96.06,1.66.1Z"/>
    <path class="cls-1" d="M743.01,492.7c-.56,6.67-1.12,13.23-1.7,20.15-.92,0-1.79,0-2.67,0-16.72.08-33.45.17-50.17.18-.85,0-2.18-.51-2.44-1.13-.61-1.48.65-1.8,1.87-2.13,3.27-.88,4.92-2.92,4.94-6.79.09-16.16.11-32.33-.02-48.49-.03-3.62-1.7-6.47-5.58-7.54-.62-.17-1.44-1.17-1.41-1.74.03-.56,1.03-1.51,1.62-1.52,9.3-.1,18.61-.07,28.02-.07.31,1.97.46,3.03-1.56,3.55-3.64.94-5.56,3.75-5.58,7.31-.13,17.71-.06,35.42-.06,53.42,7.02-.12,13.92-.24,20.38-3.11,4.53-2.01,7.06-6.11,9.5-10.11,1.17-1.91,2.43-2.69,4.87-2Z"/>
  </g>
  <g>
    <path class="cls-1" d="M497.93,546.6v-18.43h-5.68v-2.53h14.07v2.53h-5.6v18.43h-2.79Z"/>
    <path class="cls-1" d="M506.93,546.6v-15.17h2.59v2.79l-.28-.39c.36-.86.9-1.51,1.63-1.93.73-.42,1.62-.63,2.67-.63h.93v2.5h-1.32c-1.07,0-1.93.33-2.59.98s-.99,1.6-.99,2.81v9.03h-2.65Z"/>
    <path class="cls-1" d="M522.19,546.94c-1.11,0-2.09-.25-2.96-.76-.86-.51-1.54-1.21-2.03-2.12-.49-.91-.73-1.96-.73-3.14v-9.48h2.65v9.2c0,.75.16,1.41.46,1.97.31.56.74,1,1.29,1.32.55.32,1.19.48,1.9.48s1.35-.16,1.9-.48c.55-.32.98-.78,1.29-1.38s.46-1.31.46-2.14v-8.98h2.65v15.17h-2.56v-2.96l.39.25c-.36.96-.96,1.7-1.8,2.24-.84.54-1.82.8-2.93.8Z"/>
    <path class="cls-1" d="M538.57,546.94c-1.52,0-2.84-.38-3.97-1.13-1.13-.75-1.93-1.76-2.42-3.04l2.11-1.01c.43.9,1.02,1.61,1.77,2.14.75.53,1.58.79,2.5.79.81,0,1.48-.2,2.03-.59.54-.39.82-.91.82-1.55,0-.45-.13-.81-.38-1.08-.25-.27-.55-.49-.9-.65-.35-.16-.68-.28-1-.35l-2.28-.65c-1.35-.38-2.34-.93-2.97-1.67-.63-.74-.94-1.6-.94-2.58,0-.9.23-1.68.69-2.35s1.09-1.19,1.89-1.56c.8-.38,1.69-.56,2.69-.56,1.33,0,2.53.34,3.59,1.01,1.06.68,1.82,1.62,2.27,2.84l-2.14.99c-.34-.79-.84-1.41-1.52-1.86-.67-.45-1.44-.68-2.28-.68-.77,0-1.38.19-1.83.56-.45.38-.68.86-.68,1.46,0,.41.11.76.34,1.03.22.27.5.48.82.62.32.14.63.26.93.35l2.48.73c1.24.36,2.2.91,2.88,1.66.68.75,1.03,1.65,1.03,2.7,0,.84-.23,1.6-.7,2.28-.47.67-1.12,1.2-1.94,1.58-.83.38-1.78.56-2.87.56Z"/>
    <path class="cls-1" d="M553.68,546.77c-1.48,0-2.63-.42-3.43-1.27-.81-.84-1.21-2.04-1.21-3.57v-7.99h-2.73v-2.5h.56c.68,0,1.21-.21,1.59-.62s.58-.96.58-1.63v-1.24h2.65v3.49h3.41v2.5h-3.41v7.91c0,.51.08.95.24,1.32.16.38.43.67.8.89.38.22.87.32,1.49.32.13,0,.29,0,.49-.03.2-.02.38-.04.55-.06v2.31c-.24.06-.52.1-.82.13s-.55.04-.76.04Z"/>
    <path class="cls-1" d="M564.09,546.94c-1.52,0-2.84-.38-3.97-1.13-1.13-.75-1.93-1.76-2.42-3.04l2.11-1.01c.43.9,1.02,1.61,1.77,2.14.75.53,1.58.79,2.5.79.81,0,1.48-.2,2.03-.59.54-.39.82-.91.82-1.55,0-.45-.13-.81-.38-1.08-.25-.27-.55-.49-.9-.65-.35-.16-.68-.28-1-.35l-2.28-.65c-1.35-.38-2.34-.93-2.97-1.67-.63-.74-.94-1.6-.94-2.58,0-.9.23-1.68.69-2.35s1.09-1.19,1.89-1.56c.8-.38,1.69-.56,2.69-.56,1.33,0,2.53.34,3.59,1.01,1.06.68,1.82,1.62,2.27,2.84l-2.14.99c-.34-.79-.84-1.41-1.52-1.86-.67-.45-1.44-.68-2.28-.68-.77,0-1.38.19-1.83.56-.45.38-.68.86-.68,1.46,0,.41.11.76.34,1.03.22.27.5.48.82.62.32.14.63.26.93.35l2.48.73c1.24.36,2.2.91,2.88,1.66.68.75,1.03,1.65,1.03,2.7,0,.84-.23,1.6-.7,2.28-.47.67-1.12,1.2-1.94,1.58-.83.38-1.78.56-2.87.56Z"/>
    <path class="cls-1" d="M583.74,546.94c-1.18,0-2.23-.22-3.15-.66-.92-.44-1.64-1.07-2.15-1.89-.52-.82-.77-1.76-.77-2.83,0-.92.17-1.73.51-2.43.34-.7.75-1.31,1.25-1.82.5-.51,1-.93,1.52-1.28.52-.35.94-.62,1.28-.83l1.6-.93c.54-.32,1.07-.67,1.58-1.04.51-.38.93-.81,1.27-1.31.34-.5.51-1.05.51-1.65,0-.73-.24-1.35-.73-1.84-.49-.5-1.1-.75-1.83-.75s-1.34.24-1.83.73-.73,1.12-.73,1.89c0,.51.12,1,.37,1.49.24.49.54.95.9,1.38.36.43.71.84,1.07,1.21l11.4,12.21h-3.49l-9.96-10.5c-.45-.49-.9-1.01-1.35-1.58-.45-.56-.83-1.18-1.14-1.86-.31-.68-.46-1.43-.46-2.25,0-1.03.24-1.93.72-2.69s1.11-1.36,1.9-1.79,1.66-.65,2.62-.65,1.8.22,2.58.65c.78.43,1.4,1.02,1.87,1.77.47.75.7,1.6.7,2.56s-.24,1.86-.7,2.6-1.03,1.37-1.69,1.89c-.66.52-1.28.95-1.86,1.31l-1.58.93c-.47.3-.97.66-1.49,1.07-.53.41-.98.89-1.35,1.44-.38.54-.56,1.21-.56,2,0,.94.3,1.67.92,2.2.61.53,1.4.79,2.38.79.62,0,1.17-.1,1.66-.31.49-.21.92-.48,1.31-.82s.73-.71,1.03-1.11.58-.8.84-1.2l3.24-4.78h3.01l-3.8,5.8c-.28.45-.64.96-1.07,1.52-.43.56-.94,1.1-1.52,1.6-.58.51-1.26.92-2.04,1.25-.78.33-1.69.49-2.74.49Z"/>
    <path class="cls-1" d="M604.28,546.6v-20.97h13.68v2.53h-10.89v6.64h10.33v2.56h-10.33v6.7h10.89v2.53h-13.68Z"/>
    <path class="cls-1" d="M626.49,546.94c-1.52,0-2.84-.38-3.97-1.13-1.13-.75-1.93-1.76-2.42-3.04l2.11-1.01c.43.9,1.02,1.61,1.77,2.14.75.53,1.58.79,2.5.79.81,0,1.48-.2,2.03-.59.54-.39.82-.91.82-1.55,0-.45-.13-.81-.38-1.08-.25-.27-.55-.49-.9-.65-.35-.16-.68-.28-1-.35l-2.28-.65c-1.35-.38-2.34-.93-2.97-1.67-.63-.74-.94-1.6-.94-2.58,0-.9.23-1.68.69-2.35s1.09-1.19,1.89-1.56c.8-.38,1.69-.56,2.69-.56,1.33,0,2.53.34,3.59,1.01,1.06.68,1.82,1.62,2.27,2.84l-2.14.99c-.34-.79-.84-1.41-1.52-1.86-.67-.45-1.44-.68-2.28-.68-.77,0-1.38.19-1.83.56-.45.38-.68.86-.68,1.46,0,.41.11.76.34,1.03.22.27.5.48.82.62.32.14.63.26.93.35l2.48.73c1.24.36,2.2.91,2.88,1.66.68.75,1.03,1.65,1.03,2.7,0,.84-.23,1.6-.7,2.28-.47.67-1.12,1.2-1.94,1.58-.83.38-1.78.56-2.87.56Z"/>
    <path class="cls-1" d="M641.6,546.77c-1.48,0-2.63-.42-3.43-1.27-.81-.84-1.21-2.04-1.21-3.57v-7.99h-2.73v-2.5h.56c.68,0,1.21-.21,1.59-.62s.58-.96.58-1.63v-1.24h2.65v3.49h3.41v2.5h-3.41v7.91c0,.51.08.95.24,1.32.16.38.43.67.8.89.38.22.87.32,1.49.32.13,0,.29,0,.49-.03.2-.02.38-.04.55-.06v2.31c-.24.06-.52.1-.82.13s-.55.04-.76.04Z"/>
    <path class="cls-1" d="M650.74,546.94c-.99,0-1.88-.18-2.65-.55s-1.37-.87-1.8-1.52c-.43-.65-.65-1.39-.65-2.24s.18-1.53.54-2.18c.36-.65.9-1.2,1.65-1.65.74-.45,1.67-.77,2.8-.96l5.6-.93v2.2l-5.01.87c-.98.17-1.68.47-2.12.91-.44.44-.66.99-.66,1.65,0,.62.25,1.14.75,1.55.5.41,1.12.62,1.87.62.96,0,1.79-.2,2.49-.6.7-.4,1.25-.95,1.65-1.65.39-.69.59-1.45.59-2.28v-3.88c0-.83-.3-1.5-.9-2.01-.6-.52-1.4-.77-2.39-.77-.86,0-1.63.23-2.29.68s-1.16,1.03-1.48,1.75l-2.28-1.18c.28-.69.73-1.32,1.35-1.87s1.34-.99,2.17-1.31c.83-.32,1.69-.48,2.59-.48,1.16,0,2.19.22,3.07.66.88.44,1.57,1.06,2.07,1.84s.75,1.69.75,2.7v10.3h-2.56v-2.87l.48.2c-.32.58-.75,1.1-1.31,1.56s-1.19.82-1.91,1.07c-.72.25-1.52.38-2.38.38Z"/>
    <path class="cls-1" d="M668.36,546.77c-1.48,0-2.63-.42-3.43-1.27-.81-.84-1.21-2.04-1.21-3.57v-7.99h-2.73v-2.5h.56c.68,0,1.21-.21,1.59-.62s.58-.96.58-1.63v-1.24h2.65v3.49h3.41v2.5h-3.41v7.91c0,.51.08.95.24,1.32.16.38.43.67.8.89.38.22.87.32,1.49.32.13,0,.29,0,.49-.03.2-.02.38-.04.55-.06v2.31c-.24.06-.52.1-.82.13s-.55.04-.76.04Z"/>
    <path class="cls-1" d="M679.76,546.94c-1.46,0-2.77-.35-3.93-1.04-1.15-.69-2.06-1.65-2.72-2.86-.66-1.21-.99-2.57-.99-4.07s.33-2.87.99-4.05c.66-1.18,1.54-2.12,2.65-2.8,1.11-.68,2.36-1.03,3.77-1.03,1.13,0,2.12.2,3,.6.87.4,1.61.95,2.22,1.63.61.69,1.08,1.46,1.41,2.34s.49,1.78.49,2.72c0,.22-.01.46-.04.7-.03.24-.06.49-.1.73h-12.44v-2.28h10.92l-1.27,1.01c.19-.98.1-1.85-.25-2.62s-.88-1.38-1.58-1.83c-.69-.45-1.48-.67-2.36-.67s-1.69.23-2.42.69-1.3,1.1-1.7,1.93c-.4.83-.57,1.81-.49,2.96-.08,1.11.1,2.08.52,2.91.42.83,1.02,1.48,1.8,1.94.78.46,1.63.69,2.55.69,1.01,0,1.87-.23,2.56-.7s1.26-1.07,1.69-1.8l2.2,1.13c-.3.69-.76,1.33-1.39,1.9-.63.57-1.38,1.03-2.24,1.37-.86.34-1.81.51-2.84.51Z"/>
    <path class="cls-1" d="M695.21,546.6v-20.97h7.43c1.39,0,2.61.26,3.66.79,1.05.53,1.87,1.28,2.46,2.25.59.98.89,2.13.89,3.46s-.29,2.45-.89,3.42c-.59.97-1.41,1.71-2.45,2.24s-2.27.79-3.67.79h-4.64v8.02h-2.79ZM698,536.04h4.73c.83,0,1.55-.16,2.17-.48.62-.32,1.1-.78,1.45-1.38.35-.6.52-1.29.52-2.08s-.17-1.5-.52-2.1c-.35-.59-.83-1.04-1.45-1.36s-1.34-.48-2.17-.48h-4.73v7.88Z"/>
    <path class="cls-1" d="M713.05,546.6v-21.3h2.65v21.3h-2.65Z"/>
    <path class="cls-1" d="M724.2,546.94c-.99,0-1.88-.18-2.65-.55s-1.37-.87-1.8-1.52c-.43-.65-.65-1.39-.65-2.24s.18-1.53.54-2.18c.36-.65.9-1.2,1.65-1.65.74-.45,1.67-.77,2.8-.96l5.6-.93v2.2l-5.01.87c-.98.17-1.68.47-2.12.91-.44.44-.66.99-.66,1.65,0,.62.25,1.14.75,1.55.5.41,1.12.62,1.87.62.96,0,1.79-.2,2.49-.6.7-.4,1.25-.95,1.65-1.65.39-.69.59-1.45.59-2.28v-3.88c0-.83-.3-1.5-.9-2.01-.6-.52-1.4-.77-2.39-.77-.86,0-1.63.23-2.29.68s-1.16,1.03-1.48,1.75l-2.28-1.18c.28-.69.73-1.32,1.35-1.87s1.34-.99,2.17-1.31c.83-.32,1.69-.48,2.59-.48,1.16,0,2.19.22,3.07.66.88.44,1.57,1.06,2.07,1.84s.75,1.69.75,2.7v10.3h-2.56v-2.87l.48.2c-.32.58-.75,1.1-1.31,1.56s-1.19.82-1.91,1.07c-.72.25-1.52.38-2.38.38Z"/>
    <path class="cls-1" d="M735.91,546.6v-15.17h2.59v2.96l-.42-.25c.38-.96.98-1.7,1.82-2.24.83-.53,1.82-.8,2.94-.8s2.06.24,2.91.73c.85.49,1.53,1.16,2.03,2.03.5.86.75,1.84.75,2.93v9.82h-2.65v-8.98c0-.84-.15-1.56-.45-2.14-.3-.58-.73-1.03-1.28-1.35-.55-.32-1.19-.48-1.9-.48s-1.35.16-1.9.48c-.55.32-.99.77-1.31,1.37-.32.59-.48,1.3-.48,2.12v8.98h-2.65Z"/>
    <path class="cls-1" d="M752.23,546.6v-15.17h2.59v2.96l-.42-.25c.38-.96.98-1.7,1.82-2.24.83-.53,1.82-.8,2.94-.8s2.06.24,2.91.73c.85.49,1.53,1.16,2.03,2.03.5.86.75,1.84.75,2.93v9.82h-2.65v-8.98c0-.84-.15-1.56-.45-2.14-.3-.58-.73-1.03-1.28-1.35-.55-.32-1.19-.48-1.9-.48s-1.35.16-1.9.48c-.55.32-.99.77-1.31,1.37-.32.59-.48,1.3-.48,2.12v8.98h-2.65Z"/>
    <path class="cls-1" d="M768.55,529.01v-3.38h2.65v3.38h-2.65ZM768.55,546.6v-15.17h2.65v15.17h-2.65Z"/>
    <path class="cls-1" d="M775.22,546.6v-15.17h2.59v2.96l-.42-.25c.38-.96.98-1.7,1.82-2.24.83-.53,1.82-.8,2.94-.8s2.06.24,2.91.73c.85.49,1.53,1.16,2.03,2.03.5.86.75,1.84.75,2.93v9.82h-2.65v-8.98c0-.84-.15-1.56-.45-2.14-.3-.58-.73-1.03-1.28-1.35-.55-.32-1.19-.48-1.9-.48s-1.35.16-1.9.48c-.55.32-.99.77-1.31,1.37-.32.59-.48,1.3-.48,2.12v8.98h-2.65Z"/>
    <path class="cls-1" d="M798.8,552.79c-1.07,0-2.06-.17-2.97-.51-.91-.34-1.69-.8-2.34-1.39s-1.14-1.28-1.48-2.07l2.45-1.13c.26.71.76,1.32,1.51,1.82.74.5,1.67.75,2.77.75.86,0,1.65-.16,2.35-.49.7-.33,1.27-.82,1.69-1.46.42-.65.63-1.43.63-2.35v-3.41l.45.51c-.53,1.03-1.28,1.82-2.25,2.36s-2.06.82-3.26.82c-1.41,0-2.67-.33-3.8-1-1.13-.67-2.01-1.58-2.66-2.73-.65-1.15-.97-2.43-.97-3.84s.32-2.71.97-3.86c.65-1.14,1.53-2.05,2.65-2.72s2.39-1,3.81-1c1.18,0,2.25.27,3.21.8.96.54,1.73,1.27,2.31,2.21l-.37.7v-3.38h2.56v14.52c0,1.31-.31,2.49-.93,3.52-.62,1.03-1.48,1.84-2.58,2.43-1.1.59-2.35.89-3.76.89ZM798.61,543.7c.9,0,1.71-.23,2.43-.68.72-.45,1.3-1.06,1.73-1.82s.65-1.61.65-2.55-.22-1.76-.65-2.52-1.01-1.37-1.73-1.82c-.72-.45-1.53-.68-2.43-.68s-1.75.23-2.5.68c-.75.45-1.34,1.05-1.76,1.8-.42.75-.63,1.6-.63,2.53s.21,1.79.63,2.55c.42.76,1,1.37,1.74,1.82s1.58.68,2.52.68Z"/>
  </g>
  <g>
    <path class="cls-1" d="M687.15,373.93c-2.13-5.91-2.93-11.82-.33-17.83.42-.97.71-2.11-.5-3-1.15.62-2.29,1.24-3.54,1.92-.45-2.46,1.47-4.73-.12-7.15-.68-.18-1.49-.38-2.53-.66-.92,1.56-1.69,3.09-2.68,4.46-.71.98-1.58,2.15-2.63,2.52-2.61.92-3.92,2.74-4.53,5.23-.73,3.01-2.48,5.35-4.69,7.41-.55.51-1.06,1.07-1.63,1.65,1.05,1.37,2.34,1.23,3.55,1.07,1.24-.16,2.46-.52,3.88-.83-.65,1.47-1.83,1.69-2.91,2.12-.67.27-1.56.67-1.78,1.24-1.14,2.84-2.92,5.14-5.23,7.08-.07.06,0,.27,0,.43.4.16.81.33,1.37.56-2.96,3.4-5.76,6.73-9.29,9.39-3.69,2.77-7.28,5.67-10.84,8.59-2.7,2.22-4.74,4.96-6,8.26-.33.85-.84,1.68-1.4,2.4-1.06,1.35-2.28,2.56-3.32,3.92-2.47,3.21-5.24,6.08-9.16,7.42-3.09,1.06-6.28,1.85-9.43,2.77-.46.14-.91.33-1.44.53,3.63,4.11,10.84,5.25,15.16,2.55.84-.52,1.66-1.08,2.49-1.62-.03.54-.05,1.08-.08,1.72,2.16-.62,3.24-2.21,4.22-3.77.98-1.57,1.67-3.31,2.49-4.98.13.01.25.02.38.03-.26,2.97-.52,5.94-.8,9.12,8.18,0,16.29,0,24.4,0,.31,0,.61-.08.91-.15.07,0,.13-.08.17-.15s.06-.14.14-.32c-.99-1.99-2.49-3.23-4.91-3.15-1.87.06-3.74.08-5.61.1-.8,0-1.61-.05-2.71-.08,1.73-1.98,3.24-3.55,4.56-5.27,2-2.61,3.11-5.58,2.94-8.93-.16-3.29-2.58-5.86-5.84-5.82-1.79.02-3.58.65-5.37,1.01,2.28-2.36,5.08-2.8,8.08-1.86,3.05.96,4.25,3.45,4.68,6.4.14.95.17,1.91.28,3.07,2.54-1.29,4.8-2.43,7.03-3.56,0-1.31-.12-2.49.03-3.63.18-1.34.61-2.65.93-3.98,0-.12,0-.24,0-.25,0,.01.01.1.03.2-.01,1.71-.17,3.44-.01,5.13.51,5.29,1.11,10.57,1.74,15.85.21,1.76.62,3.48.91,5.12h7.92c-.4-1.73-1.27-2.85-2.75-3.19-1.51-.34-1.75-1.31-1.78-2.58-.1-4.48.22-8.96,1.62-13.21,1.14-3.46,2.86-6.74,4.32-10.1,2.56-5.93,1.88-11.83-3.6-16.24-.9-.72-1.62-1.67-2.43-2.51.11-.11.23-.22.34-.33,1.17.77,2.39,1.48,3.49,2.34,2.96,2.32,4.84,5.26,5.06,9.13.16,2.96-.51,5.74-1.66,8.43-.36.82-.68,1.65-1.02,2.48,2.55-1.39,4.04-3.59,5.37-5.84,2.23-3.75,4.56-7.56,4.08-12.22-.19-1.81-.67-3.6-1.07-5.69.67.71,1.17,1.24,1.89,2.01.31-1.92-.29-3.36-.8-4.79ZM644.41,403.76h-.09s.12,0,.12,0c0,0-.02,0-.03,0ZM673.97,356.33l2.12-1.31-.15,1.32-2.31.63.34-.63ZM677.14,370.24c-1.65-.06-2.49-1-3.06-2.99,1.12.55,2.34,1.62,3.58,1.64,1.31.02,2.63-.96,4.05-1.55-1.06,1.77-2.43,2.98-4.57,2.91Z"/>
    <path class="cls-1" d="M683.3,423.01c-2.51-.57-3.07-1.02-3.13-3.58-.11-4.37-.02-8.75.18-13.11.09-2.06.64-4.1.98-6.15-.12-.07-.24-.14-.36-.21-1.49,1.46-2.89,3.03-4.48,4.35-1.5,1.24-2,2.71-1.75,4.55.48,3.56.89,7.14,1.46,10.68.39,2.39,1.09,4.71,2.57,6.8h7.36c-.49-1.76-1.09-2.96-2.82-3.34Z"/>
    <path class="cls-1" d="M651.79,421.19c3.75.77,4.41.58,6.24-1.92.73-.99,1.33-2.1,1.84-3.23.54-1.2.77-2.48.22-3.9-4.39,1.53-5.19,6.06-8.3,9.05Z"/>
  </g>
</svg>